<svg width="247" height="1167" viewBox="0 0 247 1167" fill="none" xmlns="http://www.w3.org/2000/svg">
<rect x="47.7035" y="578.103" width="168.426" height="10.8981" transform="rotate(-30 47.7035 578.103)" fill="#9A9A9A"/>
<ellipse cx="50.4281" cy="582.822" rx="8.91665" ry="9.41202" transform="rotate(-30 50.4281 582.822)" fill="#9A9A9A"/>
<ellipse cx="196.289" cy="498.609" rx="8.91665" ry="9.41202" transform="rotate(-30 196.289 498.609)" fill="#9A9A9A"/>
<rect width="168.426" height="10.8981" transform="matrix(-0.866025 -0.5 -0.5 0.866025 199.013 578.103)" fill="#9A9A9A"/>
<ellipse cx="8.91665" cy="9.41202" rx="8.91665" ry="9.41202" transform="matrix(-0.866025 -0.5 -0.5 0.866025 208.717 579.129)" fill="#9A9A9A"/>
<ellipse cx="8.91665" cy="9.41202" rx="8.91665" ry="9.41202" transform="matrix(-0.866025 -0.5 -0.5 0.866025 62.8561 494.916)" fill="#9A9A9A"/>
<rect x="47.6768" y="493.875" width="168.426" height="10.8981" transform="rotate(-30 47.6768 493.875)" fill="#9A9A9A"/>
<ellipse cx="50.4014" cy="498.594" rx="8.91665" ry="9.41202" transform="rotate(-30 50.4014 498.594)" fill="#9A9A9A"/>
<ellipse cx="196.262" cy="414.381" rx="8.91665" ry="9.41202" transform="rotate(-30 196.262 414.381)" fill="#9A9A9A"/>
<rect width="168.426" height="10.8981" transform="matrix(-0.866025 -0.5 -0.5 0.866025 198.987 493.875)" fill="#9A9A9A"/>
<ellipse cx="8.91665" cy="9.41202" rx="8.91665" ry="9.41202" transform="matrix(-0.866025 -0.5 -0.5 0.866025 208.69 494.901)" fill="#9A9A9A"/>
<ellipse cx="8.91665" cy="9.41202" rx="8.91665" ry="9.41202" transform="matrix(-0.866025 -0.5 -0.5 0.866025 62.8294 410.688)" fill="#9A9A9A"/>
<rect x="47.7035" y="410.103" width="168.426" height="10.8981" transform="rotate(-30 47.7035 410.103)" fill="#9A9A9A"/>
<ellipse cx="50.4281" cy="414.822" rx="8.91665" ry="9.41202" transform="rotate(-30 50.4281 414.822)" fill="#9A9A9A"/>
<ellipse cx="196.289" cy="330.609" rx="8.91665" ry="9.41202" transform="rotate(-30 196.289 330.609)" fill="#9A9A9A"/>
<rect width="168.426" height="10.8981" transform="matrix(-0.866025 -0.5 -0.5 0.866025 199.013 410.103)" fill="#9A9A9A"/>
<ellipse cx="8.91665" cy="9.41202" rx="8.91665" ry="9.41202" transform="matrix(-0.866025 -0.5 -0.5 0.866025 208.717 411.129)" fill="#9A9A9A"/>
<ellipse cx="8.91665" cy="9.41202" rx="8.91665" ry="9.41202" transform="matrix(-0.866025 -0.5 -0.5 0.866025 62.8561 326.916)" fill="#9A9A9A"/>
<rect x="47.6768" y="325.875" width="168.426" height="10.8981" transform="rotate(-30 47.6768 325.875)" fill="#9A9A9A"/>
<ellipse cx="50.4014" cy="330.594" rx="8.91665" ry="9.41202" transform="rotate(-30 50.4014 330.594)" fill="#9A9A9A"/>
<ellipse cx="196.262" cy="246.381" rx="8.91665" ry="9.41202" transform="rotate(-30 196.262 246.381)" fill="#9A9A9A"/>
<rect width="168.426" height="10.8981" transform="matrix(-0.866025 -0.5 -0.5 0.866025 198.987 325.875)" fill="#9A9A9A"/>
<ellipse cx="8.91665" cy="9.41202" rx="8.91665" ry="9.41202" transform="matrix(-0.866025 -0.5 -0.5 0.866025 208.69 326.901)" fill="#9A9A9A"/>
<ellipse cx="8.91665" cy="9.41202" rx="8.91665" ry="9.41202" transform="matrix(-0.866025 -0.5 -0.5 0.866025 62.8294 242.688)" fill="#9A9A9A"/>
<rect x="47.7035" y="242.103" width="168.426" height="10.8981" transform="rotate(-30 47.7035 242.103)" fill="#9A9A9A"/>
<ellipse cx="50.4281" cy="246.822" rx="8.91665" ry="9.41202" transform="rotate(-30 50.4281 246.822)" fill="#9A9A9A"/>
<ellipse cx="196.289" cy="162.609" rx="8.91665" ry="9.41202" transform="rotate(-30 196.289 162.609)" fill="#9A9A9A"/>
<rect width="168.426" height="10.8981" transform="matrix(-0.866025 -0.5 -0.5 0.866025 199.013 242.103)" fill="#9A9A9A"/>
<ellipse cx="8.91665" cy="9.41202" rx="8.91665" ry="9.41202" transform="matrix(-0.866025 -0.5 -0.5 0.866025 208.717 243.129)" fill="#9A9A9A"/>
<ellipse cx="8.91665" cy="9.41202" rx="8.91665" ry="9.41202" transform="matrix(-0.866025 -0.5 -0.5 0.866025 62.8561 158.916)" fill="#9A9A9A"/>
<rect x="47.6768" y="157.875" width="168.426" height="10.8981" transform="rotate(-30 47.6768 157.875)" fill="#9A9A9A"/>
<ellipse cx="50.4014" cy="162.594" rx="8.91665" ry="9.41202" transform="rotate(-30 50.4014 162.594)" fill="#9A9A9A"/>
<ellipse cx="196.262" cy="78.3811" rx="8.91665" ry="9.41202" transform="rotate(-30 196.262 78.3811)" fill="#9A9A9A"/>
<rect width="168.426" height="10.8981" transform="matrix(-0.866025 -0.5 -0.5 0.866025 198.987 157.875)" fill="#9A9A9A"/>
<ellipse cx="8.91665" cy="9.41202" rx="8.91665" ry="9.41202" transform="matrix(-0.866025 -0.5 -0.5 0.866025 208.69 158.901)" fill="#9A9A9A"/>
<ellipse cx="8.91665" cy="9.41202" rx="8.91665" ry="9.41202" transform="matrix(-0.866025 -0.5 -0.5 0.866025 62.8294 74.6881)" fill="#9A9A9A"/>
<rect x="47.7035" y="1083.1" width="168.426" height="10.8981" transform="rotate(-30 47.7035 1083.1)" fill="#9A9A9A"/>
<ellipse cx="50.4281" cy="1087.82" rx="8.91665" ry="9.41202" transform="rotate(-30 50.4281 1087.82)" fill="#9A9A9A"/>
<ellipse cx="196.289" cy="1003.61" rx="8.91665" ry="9.41202" transform="rotate(-30 196.289 1003.61)" fill="#9A9A9A"/>
<rect width="168.426" height="10.8981" transform="matrix(-0.866025 -0.5 -0.5 0.866025 199.013 1083.1)" fill="#9A9A9A"/>
<ellipse cx="8.91665" cy="9.41202" rx="8.91665" ry="9.41202" transform="matrix(-0.866025 -0.5 -0.5 0.866025 208.717 1084.13)" fill="#9A9A9A"/>
<ellipse cx="8.91665" cy="9.41202" rx="8.91665" ry="9.41202" transform="matrix(-0.866025 -0.5 -0.5 0.866025 62.8561 999.916)" fill="#9A9A9A"/>
<rect x="47.6768" y="998.875" width="168.426" height="10.8981" transform="rotate(-30 47.6768 998.875)" fill="#9A9A9A"/>
<ellipse cx="50.4014" cy="1003.59" rx="8.91665" ry="9.41202" transform="rotate(-30 50.4014 1003.59)" fill="#9A9A9A"/>
<ellipse cx="196.262" cy="919.381" rx="8.91665" ry="9.41202" transform="rotate(-30 196.262 919.381)" fill="#9A9A9A"/>
<rect width="168.426" height="10.8981" transform="matrix(-0.866025 -0.5 -0.5 0.866025 198.987 998.875)" fill="#9A9A9A"/>
<ellipse cx="8.91665" cy="9.41202" rx="8.91665" ry="9.41202" transform="matrix(-0.866025 -0.5 -0.5 0.866025 208.69 999.901)" fill="#9A9A9A"/>
<ellipse cx="8.91665" cy="9.41202" rx="8.91665" ry="9.41202" transform="matrix(-0.866025 -0.5 -0.5 0.866025 62.8294 915.688)" fill="#9A9A9A"/>
<rect x="47.7035" y="915.103" width="168.426" height="10.8981" transform="rotate(-30 47.7035 915.103)" fill="#9A9A9A"/>
<ellipse cx="50.4281" cy="919.822" rx="8.91665" ry="9.41202" transform="rotate(-30 50.4281 919.822)" fill="#9A9A9A"/>
<ellipse cx="196.289" cy="835.609" rx="8.91665" ry="9.41202" transform="rotate(-30 196.289 835.609)" fill="#9A9A9A"/>
<rect width="168.426" height="10.8981" transform="matrix(-0.866025 -0.5 -0.5 0.866025 199.013 915.103)" fill="#9A9A9A"/>
<ellipse cx="8.91665" cy="9.41202" rx="8.91665" ry="9.41202" transform="matrix(-0.866025 -0.5 -0.5 0.866025 208.717 916.129)" fill="#9A9A9A"/>
<ellipse cx="8.91665" cy="9.41202" rx="8.91665" ry="9.41202" transform="matrix(-0.866025 -0.5 -0.5 0.866025 62.8561 831.916)" fill="#9A9A9A"/>
<rect x="47.6768" y="830.875" width="168.426" height="10.8981" transform="rotate(-30 47.6768 830.875)" fill="#9A9A9A"/>
<ellipse cx="50.4014" cy="835.594" rx="8.91665" ry="9.41202" transform="rotate(-30 50.4014 835.594)" fill="#9A9A9A"/>
<ellipse cx="196.262" cy="751.381" rx="8.91665" ry="9.41202" transform="rotate(-30 196.262 751.381)" fill="#9A9A9A"/>
<rect width="168.426" height="10.8981" transform="matrix(-0.866025 -0.5 -0.5 0.866025 198.987 830.875)" fill="#9A9A9A"/>
<ellipse cx="8.91665" cy="9.41202" rx="8.91665" ry="9.41202" transform="matrix(-0.866025 -0.5 -0.5 0.866025 208.69 831.901)" fill="#9A9A9A"/>
<ellipse cx="8.91665" cy="9.41202" rx="8.91665" ry="9.41202" transform="matrix(-0.866025 -0.5 -0.5 0.866025 62.8294 747.688)" fill="#9A9A9A"/>
<rect x="47.7035" y="747.103" width="168.426" height="10.8981" transform="rotate(-30 47.7035 747.103)" fill="#9A9A9A"/>
<ellipse cx="50.4281" cy="751.822" rx="8.91665" ry="9.41202" transform="rotate(-30 50.4281 751.822)" fill="#9A9A9A"/>
<ellipse cx="196.289" cy="667.609" rx="8.91665" ry="9.41202" transform="rotate(-30 196.289 667.609)" fill="#9A9A9A"/>
<rect width="168.426" height="10.8981" transform="matrix(-0.866025 -0.5 -0.5 0.866025 199.013 747.103)" fill="#9A9A9A"/>
<ellipse cx="8.91665" cy="9.41202" rx="8.91665" ry="9.41202" transform="matrix(-0.866025 -0.5 -0.5 0.866025 208.717 748.129)" fill="#9A9A9A"/>
<ellipse cx="8.91665" cy="9.41202" rx="8.91665" ry="9.41202" transform="matrix(-0.866025 -0.5 -0.5 0.866025 62.8561 663.916)" fill="#9A9A9A"/>
<rect x="47.6768" y="662.875" width="168.426" height="10.8981" transform="rotate(-30 47.6768 662.875)" fill="#9A9A9A"/>
<ellipse cx="50.4014" cy="667.594" rx="8.91665" ry="9.41202" transform="rotate(-30 50.4014 667.594)" fill="#9A9A9A"/>
<ellipse cx="196.262" cy="583.381" rx="8.91665" ry="9.41202" transform="rotate(-30 196.262 583.381)" fill="#9A9A9A"/>
<rect width="168.426" height="10.8981" transform="matrix(-0.866025 -0.5 -0.5 0.866025 198.987 662.875)" fill="#9A9A9A"/>
<ellipse cx="8.91665" cy="9.41202" rx="8.91665" ry="9.41202" transform="matrix(-0.866025 -0.5 -0.5 0.866025 208.69 663.901)" fill="#9A9A9A"/>
<ellipse cx="8.91665" cy="9.41202" rx="8.91665" ry="9.41202" transform="matrix(-0.866025 -0.5 -0.5 0.866025 62.8294 579.688)" fill="#9A9A9A"/>
</svg>
